# xmcd
#
# Track frame offsets: 
#        150
#        15474
#        32544
#        50215
#        63943
#        78484
#        97319
#        111748
#        126271
#        141893
#        156512
#
# Disc length: 2250 seconds
#
# Revision: 0
# Processed by: cddbd v1.5.2PL0 Copyright (c) Steve Scherf et al.
# Submitted via: ExactAudioCopy v1.3
#
DISCID=a108c80b
DTITLE=Powder Blues - 'Swingin' the Blues
DYEAR=2001
DGENRE=Jump Blues, Blues Rock
TTITLE0=Good Rockin Tonight
TTITLE1=Further On Up The Road
TTITLE2=Caledonia
TTITLE3=Flip Flop And Fly
TTITLE4=Boppin With The Blues
TTITLE5=He Knows The Rules
TTITLE6=Oh Well Oh Well
TTITLE7=Buzzard Luck
TTITLE8=Lovin Kissin And Huggin
TTITLE9=Tore Down
TTITLE10=Rockchopper
EXTD=
EXTT0=
EXTT1=
EXTT2=
EXTT3=
EXTT4=
EXTT5=
EXTT6=
EXTT7=
EXTT8=
EXTT9=
EXTT10=
PLAYORDER=
